<svg xmlns="http://www.w3.org/2000/svg" width="48" height="48" viewBox="0 0 48 48" fill="none" role="img" aria-label="Akilah Mali">
  <defs>
    <radialGradient id="bloom" cx="0.5" cy="0.42" r="0.62">
      <stop offset="0" stop-color="#E2453C"/>
      <stop offset="0.5" stop-color="#C21A18"/>
      <stop offset="1" stop-color="#810100"/>
    </radialGradient>
  </defs>
  <!-- rose bloom, top view — transparent background -->
  <!-- outer ring of petals -->
  <path
    d="M16.95 14.29 Q24 5 31.05 14.29 Q42.07 18.13 35.41 27.71 Q35.17 39.37 24 36 Q12.83 39.37 12.59 27.71 Q5.93 18.13 16.95 14.29 Z"
    fill="url(#bloom)"/>
  <!-- inner ring of petals (rotated + scaled), darker for depth -->
  <path
    transform="translate(12 12) scale(0.5) rotate(36 24 24)"
    d="M16.95 14.29 Q24 5 31.05 14.29 Q42.07 18.13 35.41 27.71 Q35.17 39.37 24 36 Q12.83 39.37 12.59 27.71 Q5.93 18.13 16.95 14.29 Z"
    fill="#9E0E0C"/>
  <!-- rolled center spiral -->
  <path d="M24 20.4 C27.2 20.4 27.8 24.4 24.4 25.1 C20.9 25.8 20.6 21.6 23.8 20.9"
        fill="none" stroke="#5A0707" stroke-width="1.3" stroke-linecap="round"/>
  <circle cx="24" cy="23.2" r="1.5" fill="#7E0C0A"/>
  <!-- soft highlight on the upper-left petal -->
  <path d="M17.8 15.6 Q20.2 11.8 24 10.6" fill="none" stroke="#F3A39C" stroke-width="1.1" stroke-opacity="0.45" stroke-linecap="round"/>
</svg>
